<svg width="13" height="14" viewBox="0 0 13 14" fill="none" xmlns="http://www.w3.org/2000/svg">
<path d="M0.292787 5.87886C0.480314 6.06633 0.734622 6.17165 0.999786 6.17165C1.26495 6.17165 1.51926 6.06633 1.70679 5.87886L4.99979 2.58686L5.00679 12.9999C5.00679 13.2651 5.11214 13.5194 5.29968 13.707C5.48722 13.8945 5.74157 13.9999 6.00679 13.9999C6.272 13.9999 6.52636 13.8945 6.71389 13.707C6.90143 13.5194 7.00679 13.2651 7.00679 12.9999L6.99979 2.58586L10.2928 5.87886C10.385 5.97437 10.4954 6.05055 10.6174 6.10296C10.7394 6.15537 10.8706 6.18296 11.0034 6.18411C11.1362 6.18526 11.2678 6.15996 11.3907 6.10968C11.5136 6.0594 11.6253 5.98515 11.7192 5.89125C11.8131 5.79736 11.8873 5.68571 11.9376 5.56281C11.9879 5.43992 12.0132 5.30824 12.012 5.17546C12.0109 5.04268 11.9833 4.91146 11.9309 4.78945C11.8785 4.66745 11.8023 4.55711 11.7068 4.46486L8.12179 0.87886C7.8432 0.60023 7.51246 0.379206 7.14845 0.22841C6.78444 0.0776144 6.39429 0 6.00029 0C5.60628 0 5.21613 0.0776144 4.85212 0.22841C4.48811 0.379206 4.15737 0.60023 3.87879 0.87886L0.292787 4.46486C0.105316 4.65239 0 4.9067 0 5.17186C0 5.43702 0.105316 5.69133 0.292787 5.87886V5.87886Z" fill="white"/>
</svg>
