<svg width="86" height="20" viewBox="0 0 86 20" fill="none" xmlns="http://www.w3.org/2000/svg">
<path d="M7.825 0.324999H11.65L17.425 17.25L18.875 17.5V19H11.5V17.5L13.375 17.25L12.4 14H5.925L4.95 17.275L6.975 17.5V19H0.6L0.575 17.5L2.075 17.25L7.825 0.324999ZM9.55 4.55L9.1 2.6L8.625 4.575L6.4 12.25H11.9L9.55 4.55ZM19.6787 17.525L21.3287 17.325V7.475L19.7287 7.025V5.3L23.6037 4.775H23.6787L24.3037 5.275V5.825L24.2287 7.85H24.3037C24.4204 7.51667 24.6954 7.10833 25.1287 6.625C25.562 6.125 26.1037 5.69167 26.7537 5.325C27.4204 4.94167 28.137 4.75 28.9037 4.75C29.2704 4.75 29.587 4.8 29.8537 4.9V8.65C29.3537 8.3 28.7454 8.125 28.0287 8.125C26.812 8.125 25.7537 8.45 24.8537 9.1V17.3L27.7537 17.525V19H19.6787V17.525ZM31.4463 12.075C31.4463 10.5083 31.7546 9.175 32.3713 8.075C33.0046 6.975 33.8463 6.15 34.8963 5.6C35.9463 5.03333 37.088 4.75 38.3213 4.75C40.4213 4.75 42.038 5.4 43.1713 6.7C44.3213 7.98333 44.8963 9.73333 44.8963 11.95C44.8963 13.5333 44.5796 14.8833 43.9463 16C43.3296 17.1 42.4963 17.925 41.4463 18.475C40.413 19.0083 39.2713 19.275 38.0213 19.275C35.938 19.275 34.3213 18.6333 33.1713 17.35C32.0213 16.05 31.4463 14.2917 31.4463 12.075ZM38.2213 17.65C40.1046 17.65 41.0463 15.8333 41.0463 12.2C41.0463 10.3 40.8213 8.85833 40.3713 7.875C39.9213 6.875 39.188 6.375 38.1713 6.375C36.238 6.375 35.2713 8.19167 35.2713 11.825C35.2713 13.725 35.5046 15.175 35.9713 16.175C36.4546 17.1583 37.2046 17.65 38.2213 17.65Z" fill="#F3F8EC"/>
<path d="M47.1689 17.5L48.5689 17.275V7.475L46.9689 7.025V5.3L51.1189 4.775L51.4189 4.975L51.7939 5.8V6.85C52.3439 6.31667 53.1273 5.85 54.1439 5.45C55.1773 5.03333 56.0689 4.825 56.8189 4.825C57.7189 4.825 58.4439 4.975 58.9939 5.275C59.5606 5.575 59.9856 6.04167 60.2689 6.675C60.8189 6.175 61.5439 5.74167 62.4439 5.375C63.3439 5.00833 64.2273 4.825 65.0939 4.825C66.5773 4.825 67.6273 5.25833 68.2439 6.125C68.8606 6.99167 69.1689 8.40833 69.1689 10.375V17.275L70.7939 17.5V19H64.3189V17.5L65.6189 17.275V10.475C65.6189 9.175 65.4606 8.26667 65.1439 7.75C64.8439 7.21667 64.2606 6.95 63.3939 6.95C62.9273 6.95 62.4439 7.05833 61.9439 7.275C61.4606 7.475 61.0273 7.725 60.6439 8.025C60.7606 8.65833 60.8189 9.45 60.8189 10.4V17.275L62.3689 17.5V19H55.8439V17.5L57.2189 17.275V10.4C57.2189 9.53333 57.1606 8.85833 57.0439 8.375C56.9439 7.875 56.7439 7.51667 56.4439 7.3C56.1439 7.06667 55.7106 6.95 55.1439 6.95C54.6106 6.95 54.0773 7.075 53.5439 7.325C53.0273 7.55833 52.5606 7.84167 52.1439 8.175V17.275L53.6189 17.5V19H47.1689V17.5ZM72.2113 15.1C72.2113 13.5833 72.9697 12.4417 74.4863 11.675C76.0197 10.9083 77.9947 10.5167 80.4113 10.5V9.925C80.4113 9.24167 80.3363 8.70833 80.1863 8.325C80.053 7.94167 79.7947 7.65833 79.4113 7.475C79.0447 7.275 78.503 7.175 77.7863 7.175C76.9697 7.175 76.2363 7.28333 75.5863 7.5C74.9363 7.7 74.2613 7.96667 73.5613 8.3L72.7863 6.7C73.0363 6.48333 73.453 6.225 74.0363 5.925C74.6363 5.625 75.3447 5.36667 76.1613 5.15C76.978 4.91667 77.8197 4.8 78.6863 4.8C79.9697 4.8 80.9697 4.96667 81.6863 5.3C82.4197 5.63333 82.9447 6.16667 83.2613 6.9C83.578 7.63333 83.7363 8.61667 83.7363 9.85V17.5H85.0863V18.9C84.753 18.9833 84.278 19.0667 83.6613 19.15C83.0447 19.2333 82.503 19.275 82.0363 19.275C81.4697 19.275 81.0863 19.1917 80.8863 19.025C80.703 18.8583 80.6113 18.5167 80.6113 18V17.325C80.1613 17.825 79.578 18.275 78.8613 18.675C78.1447 19.075 77.3363 19.275 76.4363 19.275C75.6697 19.275 74.9613 19.1167 74.3113 18.8C73.678 18.4667 73.1697 17.9917 72.7863 17.375C72.403 16.7417 72.2113 15.9833 72.2113 15.1ZM78.0363 17.2C78.3863 17.2 78.7863 17.1 79.2363 16.9C79.6863 16.6833 80.078 16.425 80.4113 16.125V12.025C78.9113 12.025 77.7863 12.2833 77.0363 12.8C76.303 13.3 75.9363 13.95 75.9363 14.75C75.9363 15.55 76.1197 16.1583 76.4863 16.575C76.8697 16.9917 77.3863 17.2 78.0363 17.2Z" fill="#669135"/>
</svg>
