<svg width="148" height="38" viewBox="0 0 148 38" fill="none" xmlns="http://www.w3.org/2000/svg">
<g style="mix-blend-mode:screen" opacity="0.56" clip-path="url(#clip0)">
<path d="M42.8398 19.6736L29.7306 27.3951L29.7142 35.5395H40.8022L40.7858 30.4382H44.863V35.5899H56.3131L56.3294 19.6232H50.9941V24.3681L42.8398 19.6736ZM0.130615 10.5141C0.130615 16.3123 4.91563 21.0229 10.8053 21.0229C16.6951 21.0229 21.478 16.3123 21.478 10.5141C21.478 4.71591 16.6951 0.00526428 10.8053 0.00526428C4.91563 0.00526428 0.130615 4.71591 0.130615 10.5141Z" fill="black"/>
<path d="M22.4211 5.77174C23.0625 7.35189 23.3604 9.04684 23.2955 10.7473C23.2307 12.4477 22.8045 14.1159 22.0444 15.6442C21.2844 17.1726 20.2074 18.5271 18.8829 19.6205C17.5584 20.7138 16.0159 21.5218 14.3547 21.9922C15.3223 23.4554 16.646 24.6574 18.2055 25.4889C19.765 26.3204 21.5109 26.7549 23.2844 26.7531C29.1741 26.7531 33.9591 22.0425 33.9591 16.2443C33.9591 10.4461 29.1741 5.73549 23.2844 5.73549C22.9898 5.73952 22.6973 5.75563 22.4211 5.77174ZM94.2372 25.3837C94.2208 22.7534 92.0298 19.5351 87.1241 19.668C82.1079 19.803 79.9906 22.5118 79.9538 25.3675C79.919 28.3603 83.0101 30.6199 87.6212 30.6381C91.1277 30.6381 94.272 28.3079 94.2372 25.3837ZM91.367 25.1943C91.3159 29.0209 89.3274 29.768 86.807 29.7519C84.0432 29.7157 82.9385 27.6937 82.9385 25.3313C82.9528 23.3616 84.0207 20.5018 86.7559 20.5018C89.847 20.5018 91.4018 22.4735 91.367 25.1943ZM8.98462 22.2298H12.4378V35.4434H8.98462V22.2298ZM21.7583 27.9353H25.0397V35.536H21.7583V27.9353ZM37.7908 3.29457C38.5846 3.5141 39.5175 4.41635 39.5175 6.33766V13.4449C39.5175 15.3501 38.5846 16.2685 37.7908 16.49L36.41 16.8807C35.9087 16.9834 35.9087 17.6621 36.7557 17.6621H50.364C52.7555 17.6621 55.2206 15.5133 55.0631 13.1388C54.9936 11.8619 53.629 9.4311 50.6934 9.00616C52.7841 8.30731 52.9908 6.964 52.9744 5.99529C52.9233 3.17172 50.6566 2.11842 47.5859 2.11842H36.7577C35.9108 2.11842 35.9108 2.79914 36.412 2.90185L37.7908 3.29457ZM51.3808 11.7733C51.6733 12.7259 51.8124 14.1699 51.2253 15.1729C50.6382 16.194 49.6194 16.6693 47.7884 16.6693H45.802C43.2285 16.6693 42.7272 15.6663 42.7272 13.8638L42.7436 9.74931L47.5286 9.7332C50.5154 9.71507 51.1885 11.1772 51.3808 11.7733ZM46.1825 3.20596C47.8375 3.20596 49.4087 3.45771 49.6542 5.29846C49.7749 6.21683 49.2389 8.69802 47.1317 8.69802H42.6761L42.6945 3.20596H46.1825ZM70.5638 6.74448C70.1321 7.3386 69.6841 7.66285 68.8556 7.66285H68.2173C67.4747 7.66285 67.4747 8.75038 68.2173 8.75038H69.322V14.174C69.279 15.2897 69.6493 16.2544 70.4288 17.066C72.364 18.8685 75.4204 17.8474 76.474 16.3168L76.0893 15.8576C75.4613 16.7176 74.4732 17.1244 73.4115 16.9633C72.72 16.7941 72.2556 15.9765 72.2556 14.174V9.46333C72.2658 9.27439 72.3479 9.09616 72.4855 8.96406C72.6231 8.83196 72.8061 8.75568 72.9982 8.75038H75.9523C76.3144 8.75038 76.6601 9.15922 76.6601 9.51569V14.174C76.6601 15.62 76.9711 16.5545 77.4027 17.066C78.9759 18.9027 82.4987 17.8817 83.3436 16.2665L82.9631 15.8254C82.7544 16.2344 82.4147 16.5643 81.9965 16.7642C81.5783 16.964 81.1048 17.0227 80.6493 16.9311C80.0111 16.8102 79.5794 15.9946 79.6142 14.176L79.6653 9.39687C79.6653 9.10686 79.9742 8.76851 80.3384 8.75038H82.5498C83.0674 8.75038 83.1533 7.66285 82.5498 7.66285H80.3384C79.9742 7.67896 79.6142 7.32249 79.6142 6.93178V4.77081C79.6142 4.53316 79.0086 4.34586 78.8716 4.77081C78.6687 5.4832 78.3539 6.16 77.9387 6.77671C77.7033 7.07351 77.3977 7.3092 77.0487 7.46328C76.6996 7.61736 76.3176 7.68518 75.9359 7.66083H72.988C72.8913 7.66004 72.7957 7.64051 72.7066 7.60334C72.6176 7.56617 72.5368 7.5121 72.469 7.44421C72.4012 7.37633 72.3476 7.29596 72.3114 7.20769C72.2751 7.11942 72.2568 7.02498 72.2577 6.92977V4.77081C72.2577 4.53316 71.6194 4.39621 71.4966 4.77081C71.3021 5.47618 70.9866 6.14366 70.5638 6.74448ZM100.538 7.64271C100.538 7.64271 99.6994 8.31738 99.415 8.55906C98.9977 7.78167 98.3512 7.42117 97.895 7.42117L95.0801 7.4393C94.7507 7.4393 94.4581 7.60847 94.4766 7.86424C94.4766 8.10189 95.0801 8.22273 95.3399 8.37378C95.7204 8.57718 96.1684 8.91754 96.238 9.34249C96.6123 11.7149 96.6266 13.7672 96.2891 16.1456C96.1848 16.8586 95.3726 17.0459 94.7159 17.1305C94.0245 17.2332 94.0244 17.8434 94.7671 17.8434L101.193 17.8273C101.935 17.8273 101.935 17.1627 101.434 17.1627C100.777 17.1627 99.5684 16.6854 99.4825 15.9724C99.204 13.9947 99.2455 11.9861 99.6053 10.0212C99.7075 9.49354 99.9489 8.78059 100.434 8.66177C101.97 8.25294 101.453 9.22366 102.385 9.80167C103.371 10.432 105.027 9.68083 104.771 8.40801C104.546 7.57423 103.682 7.08081 102.801 6.94387C102.395 6.89585 101.983 6.93332 101.593 7.05381C101.203 7.17429 100.843 7.37503 100.538 7.64271ZM130.379 26.7451V30.2816C130.379 30.2816 130.621 31.0469 131.744 29.7539C132.435 30.1285 134.318 30.5535 136.253 30.6723C139.276 30.8596 141.054 29.1256 141.073 27.3412C141.089 25.724 139.915 24.4492 137.842 24.1431L132.902 23.4986C131.175 23.2086 131.814 21.3719 132.867 20.9308C133.662 20.5768 134.541 20.4471 135.406 20.5562C136.299 20.5665 137.17 20.8282 137.917 21.3103C138.664 21.7924 139.255 22.4749 139.62 23.2771C139.931 23.8712 140.31 23.7181 140.449 23.4986L140.398 20.3528C140.518 19.9782 139.776 19.7929 139.395 20.4213C139.274 20.6247 138.826 20.7274 138.168 20.524C137.117 20.1545 136.018 19.9361 134.905 19.8755C131.554 19.9097 130.259 21.8471 130.294 23.4644C130.345 25.0453 131.122 25.8106 133.057 26.2356L135.068 26.5296L137.325 26.7975C139.569 27.0693 140.398 28.6342 138.049 29.5344C137.186 29.8587 134.698 30.0278 133.023 29.2283C131.982 28.6698 131.193 27.7468 130.811 26.6424C130.744 26.4913 130.379 26.4913 130.379 26.7451Z" fill="black"/>
<path d="M99.7709 20.3689C99.3802 20.6106 98.8401 21.0698 98.2836 20.5341C97.8827 20.1494 97.7599 19.803 97.0214 19.803H94.5522C94.1021 19.803 93.7912 19.9218 93.7912 20.1776C93.7912 20.5361 94.2576 20.6529 94.7752 20.7898C95.6119 21.0114 95.8983 22.3849 95.8983 23.0858V27.8468C95.8983 28.6966 95.035 29.4438 93.9466 29.6311C93.8423 29.6493 93.6173 29.905 93.6521 30.04C93.7216 30.193 93.8935 30.2595 94.2555 30.2595H99.8691C100.215 30.2595 100.421 30.1064 100.405 29.8849C100.387 29.6976 100.268 29.5949 99.8507 29.5626C98.6764 29.4781 98.3655 28.7289 98.3655 27.879V24.1028C98.3491 22.8602 98.7623 21.535 99.8691 20.9912C100.853 20.4978 102.13 20.2783 103.046 20.9067C103.909 21.4464 104.394 22.2963 104.411 23.3033L104.427 28.03C104.427 28.8296 103.944 29.3733 102.389 29.6633C102.13 29.7137 102.095 30.3441 102.631 30.3441H108.987C109.419 30.3441 109.419 29.8164 108.971 29.7157C107.33 29.2908 107.07 28.8316 107.089 27.9636V23.3053C107.089 22.3708 107.917 21.2994 108.815 20.959C109.799 20.5683 111.44 20.5502 112.182 21.1624C112.821 21.6901 113.081 22.5219 113.081 23.9336V27.9636C113.081 28.898 112.823 29.4942 111.25 29.7661C110.922 29.8164 110.955 30.3441 111.421 30.3441H117.242C117.724 30.3441 117.708 29.8164 117.293 29.7499C115.963 29.5284 115.687 28.8819 115.687 28.0482V23.7121C115.687 22.9468 115.376 21.9277 115.118 21.5531C113.05 19.0659 109.593 19.3962 107.397 21.0436C106.845 21.4887 106.301 20.9268 106.301 20.9268C104.795 19.3539 101.639 19.2169 99.7709 20.3689ZM65.9403 30.5012L65.9669 27.7118L75.3876 27.7279L75.404 30.4649C75.3896 32.5252 75.5431 33.2703 74.5407 33.9692C74.0157 34.3608 73.3971 34.6126 72.7445 34.7003C72.1901 34.7848 72.2433 35.4998 72.8652 35.4998H81.2078C81.8297 35.4998 81.7949 34.7869 81.2425 34.7003C80.2258 34.5714 79.8289 34.2411 79.4464 33.9692C78.5483 33.3288 78.5831 32.8796 78.5667 30.4488C78.5503 30.4488 78.5667 27.8468 78.5667 24.8037C78.6178 23.2227 78.5012 21.8995 79.4464 21.2672C80.1317 20.808 80.5367 20.6267 81.2425 20.5361C81.7949 20.4515 81.8297 19.7386 81.2078 19.7386H72.8652C72.2433 19.7386 72.1901 20.4515 72.7445 20.5361C73.5792 20.667 74.0824 20.961 74.5407 21.2672C75.4797 21.8955 75.3876 22.3386 75.404 24.7694L75.3876 26.7773L65.9669 26.7512L65.9403 24.8057C65.9567 22.3728 65.8524 21.8955 66.8036 21.3034C67.491 20.8744 67.8695 20.6871 68.5998 20.5723C69.1542 20.4878 69.101 19.7728 68.4791 19.7728H60.1365C59.5146 19.7728 59.5494 20.4878 60.1018 20.5723C60.8791 20.671 61.2924 20.8966 61.8979 21.3034C62.841 21.9358 62.7265 22.2218 62.7449 24.6546L62.7796 30.4871C62.7633 32.9199 62.8226 33.371 61.8979 34.0075C61.276 34.4364 60.8689 34.6398 60.1018 34.7385C59.5494 34.8231 59.5146 35.536 60.1365 35.536H68.4791C69.101 35.536 69.1542 34.8231 68.5998 34.7385C67.6301 34.5996 67.3887 34.3639 66.8036 34.0075C65.838 33.4093 65.9567 32.932 65.9403 30.5012ZM85.737 33.8141C86.4674 33.7718 86.6883 33.8906 86.6495 34.6539L86.6372 34.9037C85.9212 34.9963 85.6164 35.091 85.0394 35.2601C84.7179 35.3552 84.4241 35.5243 84.1823 35.7536C83.8447 36.102 83.812 36.684 84.3909 36.9619C84.9965 37.3466 86.2096 37.2741 86.7231 36.7424C86.791 36.8493 86.8863 36.9368 86.9993 36.9962C87.1845 37.1215 87.3999 37.1967 87.6239 37.2143C87.8479 37.2318 88.0726 37.1912 88.2757 37.0963C88.4787 37.0015 88.6528 36.8558 88.7807 36.6739C88.9085 36.492 88.9856 36.2801 89.0041 36.0597H88.6236C88.5929 36.2067 88.5786 36.3537 88.4722 36.4343C88.3004 36.5692 88.1142 36.5491 88.0978 36.253C88.0692 35.7334 88.0958 34.3095 88.0672 34.2411C88.0672 34.2411 87.973 33.937 87.7071 33.7799C86.6494 33.1556 85.0108 33.4415 84.3909 33.8484C84.0309 34.1001 84.1905 34.519 84.3316 34.6358C84.7039 34.95 85.3975 34.8775 85.5836 34.6439C85.737 34.4525 85.8987 34.0195 85.4957 33.8484L85.737 33.8141ZM86.6556 36.0637C86.6556 36.2933 86.6065 36.3537 86.4817 36.5068C86.0357 36.8592 85.6695 36.6719 85.5427 36.3819C85.5027 36.2693 85.4938 36.1483 85.5168 36.0312C85.5398 35.9141 85.5939 35.8051 85.6736 35.7153C85.9366 35.4592 86.2844 35.3047 86.6535 35.2803V36.0637H86.6556ZM91.8661 36.8109C91.2974 36.8109 91.2892 36.5491 91.2442 36.2329L91.2606 34.8211C91.2526 34.6628 91.301 34.5068 91.3976 34.38C91.6349 34.088 92.2507 33.9309 92.4676 34.3639C92.6067 34.517 92.5883 34.7707 92.6067 34.9762V37.1533H94.679V36.8129C94.1246 36.8129 94.0755 36.7525 94.0755 36.2168L94.0592 34.5512C94.0678 34.4369 94.0522 34.322 94.0135 34.2138C93.9748 34.1057 93.9137 34.0066 93.8341 33.9229C93.1999 33.0629 91.8211 33.4959 91.191 33.9913C91.191 33.9913 91.2094 33.516 91.1931 33.4536L89.0368 33.4838L89.0409 33.8564L89.266 33.8584C89.5196 33.8403 89.6649 33.9611 89.7692 34.1766L89.7794 34.3559L89.7917 36.2369C89.7917 36.7203 89.5606 36.8733 89.0675 36.8149V37.1553H91.8661V36.8109ZM100.178 37.1694V36.829C99.5909 36.829 99.5213 36.6659 99.5213 36.3316V31.5907L97.4142 31.6411V31.9975C97.6924 31.9633 98.0259 32.0056 98.0688 32.3882V33.8343C96.5836 32.7427 94.3497 34.1726 95.0125 35.965C95.134 36.2478 95.3187 36.4999 95.5528 36.7028C95.7869 36.9056 96.0644 37.054 96.3647 37.1368C96.665 37.2196 96.9804 37.2347 97.2874 37.1811C97.5945 37.1275 97.8853 37.0064 98.1384 36.827V37.1674H100.178V37.1694ZM97.8029 36.4584C97.6269 36.6175 97.1585 36.8632 96.7555 36.3275C96.6225 36.1503 96.5959 35.955 96.5713 35.6508C96.5161 34.946 96.5713 34.2975 97.0357 34.0497C97.5983 33.7477 98.0402 34.3639 98.0402 34.8694V35.8623C98.0402 36.0476 98.0504 36.2329 97.8029 36.4584ZM110.896 35.5199C110.894 35.0265 111.428 35.0064 111.806 35.0346V34.6761H108.351V35.0346C108.59 35.0044 109.284 35.0044 109.318 35.4192C109.341 35.679 109.355 36.102 109.267 36.3598C109.179 36.6236 108.668 36.8491 108.261 36.829C107.551 36.7928 107.183 36.5048 107.017 36.0516C106.733 35.2783 106.81 33.8927 106.978 33.2804C107.125 32.7387 107.42 32.2211 108.007 31.9895C109.145 31.5947 110.233 32.5353 110.442 33.6047H110.978L110.873 31.496H110.39C110.39 31.8263 110.124 31.9734 109.822 31.8525C109.631 31.8022 109.46 31.6995 109.267 31.6471C107.933 31.2947 106.209 31.8827 105.417 33.0589C105.165 33.4399 105.021 33.8804 105 34.3347C104.978 34.789 105.081 35.2406 105.296 35.6428C105.634 36.2211 106.148 36.6792 106.767 36.9514C107.385 37.2235 108.075 37.2956 108.737 37.1573C109.163 37.0727 109.513 36.8632 109.736 36.7485C109.885 36.7001 109.965 36.7283 110.11 36.7948C110.196 36.8351 110.407 37.0324 110.532 37.1895H110.894L110.896 35.5199ZM129.737 36.6538C129.285 36.7746 128.675 36.4605 128.485 36.0033C128.404 35.7979 128.358 35.5809 128.348 35.3608H131.155C131.138 35.0205 131.034 34.0719 130.136 33.6429C129.798 33.4726 129.422 33.388 129.042 33.3968C128.662 33.4055 128.291 33.5075 127.961 33.6933C127.37 33.9712 126.756 34.6056 126.691 35.2924C126.628 35.969 127.217 36.5732 127.632 36.823C128.199 37.1632 128.876 37.282 129.528 37.1561C130.18 37.0301 130.76 36.6684 131.155 36.1423L130.758 36.0395C130.754 36.0416 130.498 36.4504 129.737 36.6538ZM128.373 34.5512C128.395 34.4425 128.567 33.8181 128.964 33.8181C129.426 33.8202 129.555 34.3418 129.604 34.5673C129.663 34.8271 129.653 34.9097 129.651 34.9742L128.325 34.9762C128.326 34.8333 128.342 34.6909 128.373 34.5512ZM137.693 37.0707C137.893 36.9055 137.953 36.9398 138.206 36.9942C139.289 37.2318 139.401 37.2459 140.054 37.1311C140.76 36.968 141.259 36.2631 140.987 35.667C140.78 35.2098 140.267 35.0326 139.847 34.9016L138.845 34.664C138.519 34.5754 138.309 34.5089 138.241 34.4102C138.037 34.1162 138.202 33.9793 138.397 33.8826C139.237 33.5503 139.966 34.2109 140.383 34.8694H140.815V33.4234H140.383C140.348 33.5422 140.244 33.6107 140.125 33.6792C139.951 33.7295 139.745 33.6107 139.589 33.5765C139.278 33.4879 138.896 33.3932 138.552 33.4738C137.914 33.5986 137.161 33.9772 137.239 34.6298C137.317 35.2823 137.828 35.53 138.413 35.667L139.536 35.9227C139.742 35.9601 139.93 36.0618 140.072 36.2127C140.32 36.5168 140.25 36.8411 139.675 36.8411C139.33 36.8411 138.278 36.6034 137.895 36.0758C137.826 35.955 137.705 35.8381 137.638 35.7012H137.241V37.1976H137.603C137.593 37.1996 137.693 37.0526 137.693 37.0707ZM82.5089 11.2135C81.7908 13.3322 82.9794 15.4569 84.7183 16.6552C86.0222 17.5247 87.5875 17.9324 89.1575 17.8112C91.1276 17.6924 93.8219 16.8586 94.9266 14.9534L94.4765 14.6996C93.738 15.7006 92.1914 17.2453 89.2435 16.8767C86.9604 16.6572 85.1336 14.6775 85.332 12.8206C85.3545 12.6152 85.3668 12.1661 86.0644 12.1661L93.9057 12.15C94.9327 12.15 95.1536 11.7854 94.9695 11.1168C94.5747 9.68488 92.9156 7.24598 88.8589 7.22987C86.4653 7.2198 83.6831 8.30532 82.5089 11.2135ZM85.4384 10.4945C85.688 9.03035 87.6478 7.59439 89.5483 7.94482C91.7352 8.30935 92.1525 10.3616 92.1668 10.4361C92.1862 10.5498 92.1798 10.6663 92.148 10.7773C92.1162 10.8883 92.0599 10.991 91.983 11.078C91.9062 11.165 91.8107 11.2342 91.7035 11.2806C91.5963 11.327 91.4799 11.3495 91.3629 11.3464H86.0951C85.6286 11.3444 85.3524 10.9557 85.4384 10.4945ZM55.908 11.2135C55.192 13.3322 56.3805 15.4569 58.1194 16.6552C59.4232 17.525 60.9886 17.9327 62.5587 17.8112C64.5267 17.6924 67.221 16.8586 68.3277 14.9534L67.8797 14.6996C67.1391 15.7006 65.5946 17.2453 62.6446 16.8767C60.3616 16.6572 58.5327 14.6775 58.7331 12.8206C58.7557 12.6152 58.7679 12.1661 59.4655 12.1661L67.3069 12.15C68.3359 12.15 68.5568 11.7854 68.3727 11.1168C67.9779 9.68488 66.3188 7.24598 62.2621 7.22987C59.8644 7.2198 57.0802 8.30532 55.908 11.2135ZM58.8375 10.4945C59.085 9.03035 61.0469 7.59439 62.9494 7.94482C65.1363 8.30935 65.5537 10.3616 65.566 10.4361C65.5853 10.5498 65.5789 10.6663 65.5471 10.7773C65.5153 10.8883 65.459 10.991 65.3821 11.078C65.3053 11.165 65.2098 11.2342 65.1026 11.2806C64.9954 11.327 64.8791 11.3495 64.762 11.3464H59.4942C59.0277 11.3444 58.7516 10.9557 58.8375 10.4945ZM117.033 23.7302C116.317 25.8489 117.505 27.9736 119.244 29.1719C120.548 30.0418 122.114 30.4494 123.684 30.328C125.652 30.2071 128.346 29.3753 129.451 27.4701L129.003 27.2164C128.264 28.2173 126.718 29.762 123.77 29.3935C121.487 29.174 119.658 27.1962 119.858 25.3374C119.881 25.1319 119.893 24.6828 120.59 24.6828L128.432 24.6667C129.461 24.6667 129.682 24.3022 129.498 23.6315C129.103 22.1996 127.444 19.7607 123.387 19.7446C120.991 19.7345 118.207 20.8221 117.033 23.7302ZM119.964 23.0112C120.212 21.5471 122.174 20.1111 124.076 20.4596C126.261 20.8261 126.681 22.8763 126.693 22.9508C126.712 23.0645 126.706 23.1811 126.674 23.292C126.642 23.403 126.586 23.5057 126.509 23.5927C126.432 23.6797 126.337 23.7489 126.23 23.7953C126.122 23.8417 126.006 23.8642 125.889 23.8611H120.621C120.153 23.8611 119.879 23.4704 119.964 23.0112ZM113.721 33.8141C114.451 33.7718 114.67 33.8906 114.631 34.6539L114.619 34.9037C113.905 34.9963 113.598 35.091 113.021 35.2601C112.7 35.3557 112.406 35.5248 112.164 35.7536C111.829 36.102 111.794 36.684 112.375 36.9619C112.978 37.3466 114.191 37.2741 114.707 36.7424C114.774 36.8502 114.869 36.9379 114.983 36.9962C115.168 37.1216 115.383 37.1969 115.607 37.2145C115.831 37.2322 116.056 37.1915 116.259 37.0966C116.462 37.0017 116.636 36.856 116.763 36.674C116.891 36.492 116.968 36.2801 116.986 36.0597H116.605C116.575 36.2067 116.558 36.3537 116.454 36.4343C116.28 36.5692 116.096 36.5491 116.08 36.253C116.049 35.7334 116.078 34.3095 116.047 34.2411C116.047 34.2411 115.953 33.937 115.689 33.7799C114.633 33.1556 112.993 33.4415 112.373 33.8484C112.011 34.1001 112.172 34.519 112.311 34.6358C112.682 34.95 113.379 34.8775 113.565 34.6439C113.717 34.4525 113.878 34.0195 113.477 33.8484L113.721 33.8141ZM114.637 36.0637C114.637 36.2933 114.59 36.3537 114.466 36.5068C114.02 36.8592 113.651 36.6719 113.524 36.3819C113.485 36.2691 113.477 36.1481 113.5 36.0311C113.524 35.9141 113.578 35.8052 113.657 35.7153C113.92 35.4592 114.268 35.3047 114.637 35.2803V36.0637Z" fill="black"/>
<path d="M119.938 36.8109C119.662 36.8109 119.107 36.8733 119.11 36.4201V35.6548C119.11 35.1111 119.118 34.5814 119.646 34.1585C119.646 34.2612 119.715 34.3276 119.783 34.4142C120.229 34.8714 120.812 34.6257 121.018 34.4424C121.074 34.3966 121.119 34.3387 121.149 34.2732C121.179 34.2076 121.193 34.1362 121.191 34.0644C121.188 33.9926 121.169 33.9224 121.134 33.8591C121.1 33.7958 121.051 33.7411 120.992 33.6993C120.331 33.0468 119.449 33.655 119.075 34.1927V33.4455H116.949V33.8544C117.424 33.8362 117.702 33.9551 117.673 34.4163V36.3879C117.673 36.825 117.248 36.8129 116.949 36.8129V37.1532H119.938V36.8109ZM126.589 37.1693V36.829C126 36.829 125.932 36.6659 125.932 36.3315V31.5907L123.825 31.641V31.9975C124.105 31.9633 124.439 32.0056 124.482 32.3882V33.8342C122.994 32.7427 120.763 34.1726 121.425 35.965C121.547 36.2474 121.732 36.4993 121.965 36.7019C122.199 36.9045 122.477 37.0527 122.777 37.1355C123.077 37.2183 123.392 37.2336 123.699 37.1802C124.006 37.1267 124.296 37.006 124.549 36.827V37.1673H126.589V37.1693ZM124.214 36.4584C124.038 36.6175 123.569 36.8632 123.166 36.3275C123.033 36.1503 123.005 35.9549 122.982 35.6508C122.927 34.9459 122.982 34.2974 123.444 34.0497C124.009 33.7476 124.451 34.3639 124.449 34.8694L124.451 35.8623C124.451 36.0476 124.461 36.2328 124.214 36.4584ZM134.103 36.8109C133.534 36.8109 133.526 36.549 133.481 36.2329L133.497 34.8211C133.489 34.6628 133.538 34.5068 133.634 34.38C133.872 34.088 134.487 33.9309 134.704 34.3639C134.843 34.517 134.825 34.7707 134.843 34.9761V37.1532H136.916V36.8129C136.361 36.8129 136.312 36.7525 136.312 36.2167L136.294 34.5512C136.302 34.4368 136.287 34.322 136.248 34.2138C136.209 34.1057 136.148 34.0066 136.069 33.9228C135.435 33.0629 134.056 33.4959 133.426 33.9913C133.426 33.9913 133.444 33.516 133.428 33.4536L131.272 33.4838L131.276 33.8564L131.501 33.8584C131.754 33.8403 131.9 33.9611 132.004 34.1766L132.014 34.3558L132.026 36.2369C132.026 36.7202 131.795 36.8733 131.302 36.8149V37.1552H134.101V36.8109H134.103ZM144.047 34.233C145.852 34.233 147.394 32.8534 147.394 30.9623C147.394 29.0893 145.852 27.7098 144.047 27.7098C142.224 27.7098 140.682 29.0893 140.682 30.9623C140.684 32.8534 142.224 34.233 144.047 34.233ZM141.349 30.9623C141.349 29.4176 142.531 28.2535 144.047 28.2535C145.545 28.2535 146.727 29.4176 146.727 30.9623C146.727 32.5332 145.545 33.6892 144.047 33.6892C142.531 33.6892 141.349 32.5332 141.349 30.9623Z" fill="black"/>
<path d="M143.345 31.2221H144.01L145.019 32.8535H145.667L144.581 31.196C145.142 31.1275 145.571 30.8334 145.571 30.1608C145.571 29.4196 145.123 29.0914 144.221 29.0914H142.769V32.8535H143.348V31.2221H143.345ZM143.345 30.7388V29.5747H144.133C144.536 29.5747 144.966 29.6613 144.966 30.1265C144.966 30.7046 144.528 30.7388 144.037 30.7388H143.345Z" fill="black"/>
</g>
<defs>
<clipPath id="clip0">
<rect width="147.263" height="37.2295" fill="white" transform="translate(0.130615)"/>
</clipPath>
</defs>
</svg>
