<svg width="123" height="51" viewBox="0 0 123 51" fill="none" xmlns="http://www.w3.org/2000/svg">
<g style="mix-blend-mode:screen" opacity="0.56">
<path d="M21.1243 0.282167C18.5458 0.859156 17.4262 1.24947 15.1869 2.33557C13.6772 3.06529 11.1326 4.59262 10.5897 5.10173C10.454 5.23749 9.94512 5.67871 9.4362 6.10297C7.89249 7.37574 5.31398 10.5152 4.21133 12.4498C-0.385873 20.5956 -0.385873 30.3026 4.21133 38.4483C5.31398 40.3829 7.89249 43.5224 9.4362 44.7952C9.94512 45.2194 10.3862 45.6098 10.4371 45.6607C10.6067 45.8813 12.7781 47.3068 13.762 47.8498C16.4932 49.3602 18.1387 49.9711 21.2939 50.633C23.0582 51.0233 28.9786 51.0233 30.6919 50.633C33.2704 50.0729 34.39 49.6826 36.7141 48.5796C40.3952 46.8316 42.872 44.8122 46.0442 40.9769C46.5192 40.3999 47.062 39.3986 46.9602 39.2968C46.8924 39.2459 44.9076 39.195 42.5157 39.195H38.1899L37.223 39.9587C35.3739 41.4181 32.4731 42.9115 30.7937 43.2848C30.4714 43.3527 29.8607 43.5054 29.4366 43.6242C28.4188 43.8958 23.4992 43.8958 22.4814 43.6242C22.0573 43.5054 21.4466 43.3527 21.1243 43.2848C20.1404 43.0642 18.2235 42.2327 16.8833 41.4351C13.8468 39.6532 11.4719 37.0567 9.77548 33.6797C9.30049 32.7463 8.91032 31.8638 8.91032 31.7281C8.91032 31.5923 8.80854 31.185 8.67283 30.7947C7.6041 27.7401 7.6041 23.1581 8.67283 20.1034C8.80854 19.7131 8.91032 19.3058 8.91032 19.1701C8.91032 19.0343 9.30049 18.1519 9.77548 17.2185C11.4719 13.8414 13.8468 11.245 16.8833 9.46308C18.2235 8.66548 20.1404 7.83394 21.1243 7.61332C21.4466 7.54544 22.0573 7.39271 22.4814 7.27392C22.9394 7.15513 24.3474 7.07027 25.959 7.07027C27.5706 7.07027 28.9786 7.15513 29.4366 7.27392C29.8607 7.39271 30.4714 7.54544 30.7937 7.61332C32.4731 7.98667 35.3739 9.48005 37.223 10.9395L38.1899 11.7032H42.5496C45.2299 11.7032 46.9263 11.6353 46.9942 11.5335C47.1469 11.2789 45.1621 8.73336 43.5336 7.12119C42.2443 5.83145 40.1238 4.06654 39.8863 4.06654C39.8354 4.06654 39.4622 3.84592 39.0551 3.55743C38.3765 3.09923 37.0703 2.42042 35.6284 1.77555C34.3731 1.21553 32.7276 0.706425 30.6919 0.265198C29.0634 -0.0911774 22.7359 -0.091179 21.1243 0.282167Z" fill="black"/>
<path d="M37.1212 13.9432C37.0534 14.062 36.9177 14.2996 36.8159 14.4523C36.3409 15.2839 33.1856 20.4089 32.5749 21.3762C32.1847 21.9871 31.7098 22.7508 31.5232 23.0732C31.3535 23.3957 30.9973 23.9896 30.7428 24.3799C30.4884 24.7872 30.2848 25.1775 30.2848 25.2794C30.2848 25.3982 30.6241 25.4491 31.15 25.4151C31.8115 25.3812 32.083 25.2794 32.2187 25.0248C32.3205 24.8551 32.6428 24.363 32.9312 23.9217L33.457 23.1581L35.9168 23.1072C38.6989 23.0563 38.7328 23.0732 38.8855 24.2951C39.0212 25.2794 39.1908 25.4491 40.056 25.4491C40.989 25.4491 40.989 25.6357 40.2087 22.3944C40.0899 21.8853 39.8524 20.8501 39.6997 20.1034C39.5471 19.3567 39.3096 18.3216 39.1908 17.8124C39.0721 17.3033 38.8515 16.2682 38.6819 15.5215C38.5123 14.7748 38.3596 14.062 38.3257 13.9432C38.2917 13.8414 38.0373 13.7396 37.7659 13.7396C37.4944 13.7396 37.206 13.8414 37.1212 13.9432ZM37.6471 18.6101C37.8167 19.3398 38.0203 20.2222 38.1051 20.5786C38.2069 20.918 38.2239 21.2914 38.173 21.3762C38.0373 21.5968 34.7463 21.5968 34.6106 21.3932C34.4579 21.1216 36.9855 17.0658 37.223 17.2015C37.2909 17.2524 37.4775 17.8803 37.6471 18.6101ZM48.1477 13.9432C48.046 14.062 47.8933 14.656 47.7745 15.2669C47.6558 15.8778 47.4692 16.8961 47.3335 17.5579C47.1978 18.2028 46.9603 19.3567 46.8246 20.1034C46.6719 20.8501 46.4514 21.9871 46.3156 22.649C46.1799 23.2938 46.0442 24.1763 46.0273 24.6006L45.9764 25.3642L48.979 25.4151C52.3039 25.466 52.7789 25.3472 53.7119 24.3121C54.4583 23.4805 54.594 23.2599 54.7297 22.5132C54.9333 21.4611 54.7467 20.6125 54.1869 20.0695C53.5762 19.4755 53.5762 19.2719 54.1869 18.5591C55.0351 17.5918 55.1199 15.6403 54.3395 14.8087C53.5083 13.9093 52.8637 13.7396 50.5057 13.7396C48.945 13.7396 48.2665 13.8075 48.1477 13.9432ZM52.7789 15.6233C53.5083 16.3191 53.2708 17.6597 52.253 18.5252C51.9816 18.7798 51.6253 18.8137 50.387 18.7798C48.6397 18.7458 48.7754 18.9325 49.0807 16.7942C49.3182 15.1651 49.4709 15.0293 51.1334 15.1481C52.1173 15.233 52.4566 15.3178 52.7789 15.6233ZM52.8128 20.8332C53.1012 21.1895 53.169 21.4441 53.1181 21.9532C53.0333 22.7169 52.253 23.769 51.6423 23.9387C50.8789 24.1593 48.1477 24.1084 47.9611 23.8708C47.7067 23.5654 48.1986 20.8501 48.5718 20.5277C48.8093 20.324 49.2504 20.2901 50.6584 20.324C52.3208 20.3919 52.4396 20.4089 52.8128 20.8332ZM58.36 13.9432C58.2582 14.3166 57.6475 17.3203 57.0029 20.6974C56.8502 21.495 56.6297 22.615 56.494 23.192C56.3582 23.769 56.2395 24.5157 56.2395 24.8381V25.4491L59.8358 25.4151L63.4322 25.3642L63.5679 24.7872C63.6527 24.4818 63.6697 24.1763 63.6188 24.1084C63.5509 24.0575 62.3126 23.9727 60.8537 23.9217L58.1903 23.8369L58.2412 22.9884C58.2752 22.5132 58.4109 21.7326 58.5466 21.2404L58.801 20.358H61.176C63.3134 20.358 63.5679 20.324 63.8732 20.0186C64.3313 19.5604 64.3143 19.0343 63.8393 18.9155C63.6188 18.8646 62.4992 18.8137 61.3287 18.7798L59.2082 18.7458L59.2591 17.8973C59.3269 16.8961 59.5983 15.776 59.8358 15.4705C59.9715 15.3178 60.7519 15.2669 62.6858 15.2669H65.3491L65.5357 14.639C65.6375 14.2996 65.6884 13.9602 65.6375 13.8753C65.5866 13.8075 63.9411 13.7396 61.9902 13.7396C59.293 13.7396 58.4109 13.7905 58.36 13.9432ZM66.808 13.8753C66.6892 13.9432 66.5705 14.2657 66.5535 14.5881L66.5026 15.1821L68.1651 15.233C69.4374 15.2669 69.8445 15.3348 69.9293 15.5215C69.9802 15.6572 69.8954 16.2851 69.7597 16.93C69.5222 17.9821 69.3186 18.9664 68.7079 22.1399C68.5892 22.7847 68.4026 23.7351 68.3008 24.2442C68.1821 24.7872 68.1651 25.2285 68.2499 25.3133C68.3347 25.3982 68.7079 25.4491 69.0642 25.4151C69.8106 25.3642 69.6749 25.6357 70.2347 22.7338C70.3874 21.9362 70.6248 20.7992 70.7436 20.1883C70.8623 19.5774 71.0998 18.4403 71.2525 17.6427C71.7445 15.1311 71.5239 15.3687 73.4578 15.2669C75.0524 15.1821 75.1542 15.1651 75.3917 14.7408C75.5274 14.5032 75.5783 14.1808 75.5274 14.0281C75.4256 13.7735 74.9676 13.7396 71.2186 13.7396C68.9115 13.7396 66.9267 13.8075 66.808 13.8753ZM76.2568 14.096C76.1551 14.2826 76.0872 14.6051 76.1211 14.8087C76.172 15.1651 76.2738 15.1821 77.7836 15.233C78.6657 15.2669 79.446 15.3348 79.5309 15.4196C79.5987 15.4875 79.5309 16.1154 79.3952 16.8112C79.1407 17.9821 78.9202 19.1022 78.3773 21.9702C78.2416 22.615 78.072 23.5654 77.9702 24.0575C77.6818 25.4491 77.6818 25.4491 78.547 25.4491C79.2594 25.4491 79.2934 25.4321 79.463 24.8042C79.5648 24.4648 79.6496 24.0405 79.6496 23.8708C79.6496 23.7011 79.7514 23.0902 79.8871 22.5132C80.0228 21.9362 80.2434 20.8332 80.396 20.0525C80.5487 19.2889 80.7862 18.0331 80.9389 17.2524C81.0915 16.4888 81.2612 15.7421 81.329 15.6063C81.4308 15.4196 81.8888 15.3348 83.1442 15.2669C84.7727 15.1821 84.8236 15.1651 85.0441 14.7069C85.5021 13.7396 85.4852 13.7396 80.7692 13.7396C76.5792 13.7396 76.4265 13.7566 76.2568 14.096ZM86.6557 13.8584C86.5369 13.8923 86.4012 14.2147 86.3503 14.5542C86.2994 14.8936 86.1468 15.7081 86.0111 16.37C85.7736 17.524 85.57 18.5422 84.9932 21.5459C84.8406 22.3435 84.6031 23.4805 84.4674 24.0745C84.3486 24.6684 84.2807 25.2115 84.3316 25.2963C84.3825 25.3812 86.0111 25.4491 87.9619 25.4491C91.3716 25.4491 91.5243 25.4321 91.694 25.0927C91.7957 24.906 91.8636 24.5836 91.8297 24.3799C91.7788 24.0236 91.694 24.0066 89.0646 23.9217L86.3503 23.8369L86.3843 23.2429C86.4012 22.9205 86.52 22.1568 86.6557 21.5459L86.8932 20.4428L89.4717 20.358C92.2368 20.2731 92.4234 20.2053 92.3386 19.3398L92.2877 18.9155L89.794 18.8646L87.2834 18.8137V18.3555C87.3003 18.1009 87.436 17.3203 87.6057 16.6245L87.911 15.3518L90.6931 15.2669L93.4752 15.1821L93.6957 14.7069C94.1537 13.7566 94.0689 13.7396 90.3029 13.7566C88.403 13.7566 86.7744 13.8075 86.6557 13.8584ZM95.7992 13.9432C95.6974 14.062 95.5787 14.4693 95.5108 14.8426C95.4599 15.216 95.3073 16.0475 95.1715 16.7094C95.0528 17.3542 94.8153 18.5422 94.6626 19.3398C94.51 20.1374 94.3234 21.1216 94.2216 21.5459C94.001 22.4962 93.56 24.9569 93.56 25.2285C93.56 25.5169 94.8153 25.5169 95.0528 25.2285C95.1546 25.1097 95.3073 24.5496 95.409 24.0066C95.7144 22.1568 95.9688 20.9519 96.1046 20.6974C96.2572 20.358 97.784 20.2562 98.1572 20.5616C98.3099 20.6804 98.6491 21.3592 98.9375 22.055C100.447 25.7376 100.21 25.3642 101.024 25.4151C101.94 25.483 102.127 25.2963 101.804 24.6684C101.669 24.3969 101.211 23.3617 100.787 22.3435L100.023 20.5277L101.007 20.0186C102.381 19.3398 103.026 18.4743 103.162 17.1676C103.229 16.5736 103.195 15.9287 103.077 15.5724C102.873 14.9445 102.059 14.2657 101.143 13.9263C100.447 13.6547 96.0197 13.6887 95.7992 13.9432ZM101.041 15.6233C101.465 15.9287 101.533 16.0815 101.533 16.8282C101.533 17.5918 101.465 17.7446 100.956 18.2367C100.295 18.8476 99.7009 19.0004 97.8349 19.0004C96.359 19.0004 96.3081 18.9325 96.6813 17.473C96.834 16.8961 96.9528 16.2172 96.9528 15.9627C96.9528 15.7081 97.0036 15.4366 97.0715 15.3857C97.1224 15.3178 97.9367 15.2669 98.8697 15.2669C100.295 15.2669 100.617 15.3178 101.041 15.6233ZM39.8863 28.8431C38.8176 29.1825 38.2748 29.6068 37.698 30.5401C37.3757 31.0493 37.3248 31.3717 37.3248 32.9499C37.3248 34.6809 37.3418 34.7827 37.8337 35.4955C38.1221 35.8858 38.6989 36.4458 39.106 36.7343C39.8524 37.2264 39.9372 37.2434 41.8202 37.2264C43.9237 37.2264 44.4666 37.0567 45.4166 36.1743C46.4683 35.207 46.8754 32.8142 46.2817 31.1511C45.4844 28.9449 42.7193 27.9437 39.8863 28.8431ZM43.2791 30.8117C44.0086 31.1511 44.263 31.9147 44.1443 33.3911C44.0425 34.8167 43.7371 35.1221 42.397 35.2409C41.0229 35.3597 40.2935 35.1391 39.8354 34.4433C39.106 33.3742 39.4113 31.4565 40.4292 30.8456C41.0229 30.4723 42.5157 30.4553 43.2791 30.8117ZM66.5196 28.8431C64.6705 29.4371 63.8732 30.6759 63.8732 32.9499C63.8732 36.1573 65.7053 37.5998 69.4035 37.2434C70.4213 37.1586 70.8115 37.0228 71.4561 36.5985C72.6944 35.75 73.0168 35.0203 73.0337 33.0348C73.0337 31.185 72.7962 30.4723 71.8632 29.5898C70.7775 28.5716 68.4026 28.2322 66.5196 28.8431ZM70.1499 31.0153C71.3204 32.2032 71.0829 34.647 69.7597 35.1221C69.0642 35.3597 67.6053 35.3258 67.0964 35.0712C66.2142 34.63 65.8071 32.933 66.2991 31.7281C66.6553 30.8965 67.3339 30.5401 68.5892 30.5401C69.5392 30.5401 69.7258 30.5911 70.1499 31.0153ZM100.244 28.8431C98.5983 29.3862 97.8688 30.3704 97.5295 32.5087C97.4108 33.3063 97.8179 35.1051 98.259 35.7161C98.4286 35.9537 98.9375 36.3949 99.4125 36.6834C100.227 37.2264 100.278 37.2434 102.212 37.2434C103.993 37.2434 104.23 37.2095 104.841 36.8191C106.3 35.9367 106.639 35.3088 106.758 33.4421C106.86 31.5923 106.622 30.7099 105.774 29.8104C104.671 28.6055 102.262 28.1813 100.244 28.8431ZM103.569 30.7947C104.264 31.1511 104.586 31.8638 104.586 33.0178C104.586 34.3924 104.145 35.0712 103.128 35.2239C101.109 35.5294 100.074 34.9694 99.9045 33.5099C99.7518 32.2711 100.074 31.2699 100.736 30.8796C101.397 30.4723 102.856 30.4214 103.569 30.7947ZM30.2169 28.9449C30.0473 29.4031 30.0982 30.4553 30.3187 30.6759C30.6071 30.9644 36.0695 30.9644 36.3579 30.6759C36.4766 30.5571 36.5614 30.1838 36.5614 29.8444C36.5614 28.6225 36.6802 28.6734 33.3383 28.6734C30.7428 28.6734 30.3018 28.7074 30.2169 28.9449ZM47.9442 28.911C47.8085 29.0637 47.7576 30.3195 47.7915 33.1027L47.8424 37.0737L48.8433 37.1246C49.5388 37.1585 49.895 37.1076 49.9968 36.9549C50.0647 36.8361 50.1325 35.6482 50.1155 34.3075C50.1155 32.9669 50.1495 31.8299 50.2173 31.762C50.3191 31.6602 51.1334 32.5426 51.1503 32.7802C51.1503 32.8481 51.4387 33.3402 51.795 33.8833C52.1512 34.4263 52.7789 35.3936 53.203 36.0215L53.9494 37.1755L55.2217 37.1246C56.2904 37.0737 56.5109 37.0228 56.6636 36.7343C56.8163 36.4288 57.41 35.5294 59.4287 32.4408C59.751 31.9487 60.0903 31.6093 60.1581 31.6772C60.243 31.762 60.3278 33.0008 60.3448 34.4433L60.3956 37.0737H62.4313L62.4822 33.1027C62.5161 30.3195 62.4652 29.0637 62.3295 28.911C62.1938 28.7413 61.7358 28.6734 60.8367 28.6734C59.6832 28.6734 59.4796 28.7243 59.1573 29.0637C58.9537 29.2843 58.7841 29.505 58.7841 29.5728C58.7841 29.6407 58.4448 30.1838 58.0207 30.8117C57.5966 31.4226 57.2573 31.9487 57.2573 31.9826C57.2573 32.0166 56.935 32.5257 56.5448 33.1196C56.1377 33.7136 55.7306 34.3585 55.6288 34.5451C55.3574 35.0203 54.9333 35.0373 54.6958 34.5791C54.577 34.3585 54.0681 33.5439 53.5592 32.7463C53.0333 31.9487 52.27 30.7608 51.8628 30.1159C51.4387 29.454 51.0146 28.8771 50.9128 28.8092C50.5736 28.5716 48.1477 28.6564 47.9442 28.911ZM73.9498 28.8092C73.6783 28.9789 73.5426 32.339 73.7801 32.6614C73.8819 32.7972 74.306 32.916 74.7131 32.9499C75.6292 33.0008 75.9176 32.6614 75.9176 31.5414C75.9176 30.9814 75.9854 30.7099 76.189 30.642C76.3417 30.5911 77.6648 30.5401 79.1577 30.5401C81.804 30.5401 81.8719 30.5571 82.279 30.9644C82.7879 31.4565 82.8049 31.5584 82.3469 32.1354C82.0076 32.5596 81.9567 32.5766 80.0568 32.5766H78.1229V33.5099C78.1229 34.1378 78.1907 34.4433 78.3434 34.4603C78.4452 34.4772 79.0389 34.4603 79.6496 34.4433C80.2603 34.4263 80.9389 34.4942 81.1594 34.5621C81.5156 34.6979 82.2451 35.75 82.7031 36.7682C82.8388 37.1246 82.9915 37.1586 83.9754 37.1586C84.6031 37.1586 85.0781 37.0907 85.0781 36.9888C85.0781 36.887 84.8914 36.5137 84.654 36.1403C84.4165 35.767 84.2299 35.3936 84.2299 35.3088C84.2299 35.2239 84.1111 35.0712 83.9754 34.9524C83.687 34.7148 83.6361 33.8324 83.8906 33.6796C84.2299 33.459 84.7388 32.2372 84.7388 31.6093C84.7388 30.9135 84.2638 29.7256 83.8567 29.3862C83.1611 28.8262 81.9737 28.6734 78.0381 28.6734C75.9006 28.6734 74.0516 28.7413 73.9498 28.8092ZM85.8075 28.8601C85.553 29.1146 85.5022 32.356 85.7396 32.7293C85.8584 32.899 86.1468 32.9669 86.7235 32.933C87.1646 32.916 87.5717 32.8481 87.6226 32.8142C87.6735 32.7633 87.7414 32.2541 87.7923 31.6772L87.8771 30.625L90.744 30.5741C93.9671 30.5232 94.4082 30.642 94.4082 31.5414C94.4082 32.3899 94.018 32.5596 91.8636 32.6105L89.9128 32.6614V34.3585L91.5582 34.4433C92.4573 34.4942 93.2716 34.596 93.3734 34.6979C93.4582 34.7827 93.7805 35.3258 94.0859 35.8858C94.3912 36.4458 94.7135 36.9549 94.8153 37.0228C95.0867 37.2095 96.7492 37.1925 96.851 37.0058C96.9188 36.921 96.6135 36.2591 96.1724 35.5294L95.409 34.2227L95.9519 33.476C96.4269 32.7972 96.4947 32.5935 96.4778 31.5584C96.4778 30.625 96.393 30.3026 96.0876 29.8783C95.3242 28.8431 94.9341 28.7583 90.252 28.7074C87.0119 28.6734 85.9602 28.7074 85.8075 28.8601ZM107.216 28.894C107.131 29.0637 108.132 31.5414 109.37 34.2736C109.557 34.6979 109.828 35.3088 109.964 35.6312C110.626 37.1246 110.558 37.0737 111.881 37.1246L113.085 37.1755L113.662 35.8858C113.984 35.173 114.256 34.4942 114.256 34.3585C114.256 34.2397 114.375 34.0021 114.527 33.8493C114.731 33.6457 114.85 33.6287 115.036 33.7815C115.172 33.8833 115.274 34.07 115.274 34.2057C115.274 34.4263 115.443 34.8506 116.139 36.4288L116.461 37.1586H117.615C118.531 37.1586 118.836 37.0907 119.057 36.8531C119.226 36.6834 119.345 36.4458 119.345 36.344C119.345 36.2252 119.583 35.6482 119.854 35.0712C120.142 34.4773 120.363 33.9342 120.363 33.8833C120.363 33.8154 120.6 33.2554 120.889 32.6275C121.177 31.9826 121.516 31.219 121.652 30.9305C121.788 30.625 122.025 30.1159 122.178 29.7935C122.585 28.9449 122.399 28.6734 121.415 28.6734C120.431 28.6734 120.227 28.8601 119.684 30.2007C118.48 33.1875 117.852 34.5282 117.666 34.5282C117.479 34.5282 117.174 33.9003 116.546 32.2372C115.867 30.4044 115.359 29.2334 115.138 28.9619C114.968 28.7752 114.646 28.6734 114.137 28.6734C113.238 28.6734 113.068 28.9619 113.459 29.7935C113.747 30.3874 113.696 30.6589 112.916 32.4917C112.712 32.9839 112.271 34.1378 112.135 34.5282C112.034 34.8506 112.017 34.8506 111.711 34.4433C111.525 34.2057 111.338 33.8663 111.287 33.6796C111.135 33.1875 110.202 30.8796 109.913 30.3195C109.777 30.048 109.676 29.7256 109.676 29.5898C109.676 29.454 109.523 29.1995 109.336 29.0128C108.946 28.6225 107.352 28.5207 107.216 28.894ZM32.4392 31.9996C32.3714 32.0675 32.3205 33.2554 32.3205 34.647V37.1586H34.3731L34.3222 34.5621L34.2713 31.9826L33.4231 31.9317C32.9481 31.8978 32.5071 31.9317 32.4392 31.9996Z" fill="black"/>
</g>
</svg>
