<svg width="86" height="51" viewBox="0 0 86 51" fill="none" xmlns="http://www.w3.org/2000/svg">
<g style="mix-blend-mode:screen" opacity="0.56">
<path d="M37.5827 1.12927C37.5827 0.327881 37.0587 0 36.397 0H32.2249C30.5702 0 29.3902 0.827988 29.3902 2.84453V38.5083C29.3902 39.2988 29.9169 39.6404 30.5841 39.6404H34.7478C36.4062 39.6404 37.5825 38.8124 37.5825 36.792L37.5827 1.12927ZM85.2668 13.159C85.2668 12.4905 84.772 12.1599 84.0957 12.1599H79.0325C78.0185 12.1599 77.5687 12.5171 77.1924 13.3367L70.0552 29.1475L60.1015 13.5024C59.4939 12.5299 58.8377 12.1599 57.362 12.1599H51.3452C50.0991 12.1599 49.4255 12.4905 48.6838 13.2853L38.0867 24.6464L47.5871 38.4728C48.1388 39.2669 48.5976 39.6396 49.4255 39.6396H55.0907C55.9387 39.6396 56.4323 39.2989 56.4323 38.5883C56.4323 38.1578 56.2249 37.8757 55.9387 37.4736L47.5873 25.1345L53.9205 18.3253L66.4394 36.7923L60.9137 48.4582C60.7623 48.8054 60.576 49.136 60.576 49.4666C60.576 50.1424 61.0726 50.4667 61.7498 50.4667H66.7734C67.794 50.4667 68.2363 50.1158 68.6107 49.2944L84.9355 14.1702C85.0942 13.823 85.2668 13.5024 85.2668 13.159ZM11.0741 21.6657C9.41027 21.2921 8.89359 20.8222 8.89359 19.9853C8.89359 19.3341 9.41027 18.8148 10.9117 18.8148H23.0589C25.0832 18.8148 25.9011 17.6352 25.9011 15.9874V13.3463C25.9011 12.6814 25.5679 12.1593 24.7713 12.1593H10.5437C4.20296 12.1593 0.879883 15.8272 0.879883 20.4916C0.879883 24.6467 3.43586 27.1754 8.55223 28.311L16.7154 30.1336C18.3757 30.5 18.8905 30.9762 18.8905 31.8233C18.8905 32.4653 18.3757 32.9847 16.8814 32.9847H4.21697C2.19245 32.9847 1.37371 34.1559 1.37371 35.8135V38.4494C1.37371 39.1042 1.70045 39.64 2.49709 39.64H16.3879C23.884 39.64 26.907 35.9757 26.907 31.6347C26.907 27.1499 24.3172 24.6203 19.2366 23.4892L11.0741 21.6657Z" fill="black"/>
</g>
</svg>
