<svg width="83" height="40" viewBox="0 0 83 40" fill="none" xmlns="http://www.w3.org/2000/svg">
<g style="mix-blend-mode:screen" opacity="0.56">
<path d="M26.6586 26.4959C24.6059 26.2835 22.4841 26.4959 20.9273 27.6397C18.6641 29.1414 17.6753 31.7113 18.1682 34.4237C18.4508 36.1379 19.3704 37.7095 20.786 38.7107C22.2736 39.8545 24.1821 40.1397 26.1627 39.9243C26.3732 39.9243 26.6586 39.8545 26.8691 39.8545C29.1322 39.4965 31.3261 37.6397 31.9633 35.4278C32.3077 34.3005 32.3719 33.1049 32.1501 31.9466C31.9284 30.7883 31.4276 29.703 30.6919 28.7864C29.684 27.534 28.2422 26.7152 26.6586 26.4959ZM26.8691 37.564C26.5865 38.1344 26.0907 38.635 25.4535 38.7078C24.7443 38.7078 24.1101 38.5652 23.7555 37.922C23.2596 37.1362 23.1183 36.2078 22.9771 35.2794C22.8936 34.3766 22.8465 33.4707 22.8358 32.564C22.905 31.2806 23.0462 30.064 23.4729 28.9232C23.6834 28.28 24.3205 27.7095 25.0297 27.7095C25.3653 27.6616 25.7074 27.7178 26.0107 27.8706C26.3139 28.0234 26.564 28.2656 26.7278 28.5652C27.3649 29.7788 27.3649 31.135 27.5062 32.564C27.5754 34.2782 27.5062 36.0652 26.8691 37.564ZM6.28462 31.2806L11.7306 31.2107V39.709H17.0381V21.7113H11.6614L11.7306 29.351H6.28462V21.7113H0.835793V39.709H6.28462V31.2806ZM63.725 10.4278C63.7942 9.35681 63.725 8.21304 64.6447 7.64261C65.2818 7.14202 66.3428 7.21478 66.9078 7.56985C67.7554 8.14028 67.8275 9.06868 67.8275 9.99709V19.0658H72.9938V10.4977C72.9938 9.56927 72.9217 8.64086 72.6392 7.85506C72.4165 7.17349 72.0268 6.5598 71.5062 6.07101C70.7999 5.50058 70.0215 5.06985 69.1018 4.92724C67.4758 4.71187 65.919 5.21246 64.6447 6.14086C64.3593 6.35623 64.2209 6.56868 63.9355 6.71129C63.8634 6.71129 63.7942 6.71129 63.7222 6.64144V5.35506H58.7V19.0658H63.7222V10.4278H63.725ZM81.6226 32.7794C81.1267 32.2817 80.4895 32.1362 79.9245 31.8539C78.581 31.4959 77.1655 31.3533 75.822 31.0652L75.1849 30.8527C74.7611 30.6403 74.5477 30.1397 74.4757 29.709C74.4065 29.0658 74.4757 28.4953 74.8303 27.9948C75.0198 27.7964 75.2541 27.6472 75.5132 27.56C75.7722 27.4729 76.0483 27.4503 76.3179 27.4942L76.6004 27.564C77.5201 27.922 77.8026 28.993 77.8747 29.9214C77.8747 29.9913 77.9468 30.3492 77.9468 30.3492L82.1905 30.2794C82.1905 30.2794 82.0492 29.4237 81.908 28.9959C81.6226 27.7095 80.3512 26.9936 79.2182 26.7084C78.2985 26.493 77.3067 26.4232 76.2458 26.3504C75.3261 26.4202 74.2652 26.493 73.3455 26.7782C72.2125 27.1362 70.8719 27.922 70.3761 29.2055C69.9523 29.9913 69.9523 31.0623 70.2348 31.8481C70.5173 32.5611 70.9411 33.1315 71.6475 33.4895C72.3567 33.9872 73.2043 34.1327 74.0547 34.3452L76.39 34.773C76.8858 34.9156 77.3788 34.9156 77.7334 35.2736C78.3706 35.9168 78.3706 36.9878 78.088 37.8434C77.9697 38.0867 77.8013 38.3017 77.5939 38.4739C77.3866 38.646 77.1451 38.7714 76.8858 38.8417C76.1766 38.9843 75.3982 38.7718 74.9744 38.1286C74.6295 37.4695 74.4587 36.7318 74.4785 35.9866C74.4785 35.844 74.5506 35.7014 74.4785 35.486L69.9523 35.5559C69.9523 35.5559 70.4481 37.5582 71.2265 38.4138C72.4287 39.5576 73.9135 39.8428 75.5424 39.9854C77.595 40.0553 79.7169 39.9156 81.2737 38.6292C82.4759 37.7008 82.9718 36.2718 82.6893 34.773C82.6893 34.7031 82.6201 34.6304 82.6201 34.5576C82.484 33.8726 82.1345 33.2495 81.6226 32.7794ZM11.8718 18.9261C12.7194 18.8533 13.6391 18.7835 14.4896 18.4983C16.0464 17.9278 17.459 16.3562 17.8136 14.7119C18.0241 13.8562 18.0962 12.8551 17.8136 12.0693C17.7041 11.5527 17.4869 11.0656 17.1765 10.6403C16.3981 9.71187 15.6918 9.21129 14.3483 8.78347C14.3483 8.78347 14.0658 8.78347 14.2791 8.64086C14.4925 8.57101 14.5616 8.57101 15.1267 8.28289C15.833 7.7823 16.5422 6.99651 16.7527 6.14086C17.1765 4.78463 16.8219 3.21304 15.9743 2.14203C14.6308 0.427823 12.6502 0 10.5284 0H0.766602V19.0687H9.5395C10.3871 19.0687 11.0963 19.0687 11.8718 18.9261ZM6.78049 1.7142C8.40649 1.64435 10.2458 1.50175 11.2376 2.92782L11.5201 3.35565C11.9439 4.35681 11.9439 5.78289 11.5201 6.78405C11.2376 7.28463 10.8109 7.85506 10.2458 8.07043C9.18489 8.4284 7.98269 8.2858 6.84968 8.35564C6.70842 8.2858 6.28462 8.2858 6.28462 8.2858V1.7142H6.78049ZM6.28462 17.3545V9.92724H7.27636C8.19603 9.85739 8.97443 9.92724 9.96618 9.99709L10.7446 10.2125C12.0189 10.5704 12.5839 11.9267 12.656 13.2101C12.7973 14.709 12.3735 16.3533 10.9579 17.0664C10.3208 17.3516 9.54238 17.3516 8.76398 17.4243C8.05188 17.4243 6.28462 17.3545 6.28462 17.3545ZM39.4619 19.2811C39.4619 19.2811 43.8469 5.49767 43.9882 5.06985H42.218C41.8634 6.14086 38.6806 16.5687 38.6806 16.5687L35.1432 5.14261H29.4119L33.941 17.9977C34.2235 18.6409 34.5061 19.4267 34.5781 19.9272C34.7194 20.4977 34.6473 21.1409 34.2927 21.5687C33.5864 22.2119 32.4534 22.1391 31.5337 22.0693C31.1791 22.0693 30.8966 21.9267 30.6141 21.9267C30.6141 22.3545 30.6141 22.7823 30.6832 23.213V23.2829C31.3896 23.4255 32.168 23.4255 32.9464 23.4983C34.5032 23.4983 36.1292 23.5681 37.2622 22.6426C38.3289 21.7113 39.1073 20.5675 39.4619 19.2811ZM23.8275 19.0687V13.3556C23.8275 12.6397 23.7583 11.9994 23.9688 11.3562C24.1101 10.713 24.5339 10.2125 25.171 9.85739C26.0186 9.35681 27.1516 9.42957 28.1405 9.49942H28.6363V5.14261C28.5671 5 27.5033 5.21246 27.0103 5.35506C26.4453 5.57043 26.0935 5.78289 25.4535 6.35623C24.6751 7.07218 24.038 8.14028 23.6834 9.14144C23.6142 9.14144 23.6142 9.21129 23.5421 9.21129C23.47 9.21129 23.4729 9.06868 23.4729 9.06868L23.4037 5.35506H18.8054L18.8775 19.0658H23.8275V19.0687ZM43.8469 9.49942C43.8469 9.64202 43.8469 9.78463 43.9161 9.92724L48.3011 10.0698V9.64202C48.3011 9.28405 48.3703 9.14435 48.3703 8.78638C48.4424 8.07043 48.5116 7.35739 49.0074 6.78405C49.5004 6.28638 50.2788 6.21362 50.988 6.42608C51.4839 6.49592 51.9798 7.06927 52.1211 7.56985C52.3344 8.35565 52.3344 9.35681 52.0519 10.1397C51.7693 10.9983 50.9189 11.1409 50.2125 11.3533C48.9411 11.6414 47.6669 11.7113 46.3955 12.0693C45.5479 12.2119 45.5479 12.2119 44.6974 12.6397C44.1323 12.9977 44.2015 12.9977 43.9911 13.3556C43.3539 13.9988 43.1406 14.7846 43.1406 15.713V15.8556C43.2098 17.2119 44.2736 18.4982 45.545 18.9988C46.0409 19.1414 46.5339 19.284 47.1018 19.284C48.2348 19.4267 49.3678 19.284 50.3567 18.8562C50.9938 18.6409 51.5589 18.1432 52.0547 17.6426C52.196 17.5728 52.2681 17.7125 52.3402 17.7852C52.4094 18.0704 52.4814 18.4284 52.6227 18.7835C52.6919 18.8533 52.6227 18.9988 52.836 18.9988C53.1186 19.0687 55.0992 19.0687 55.8084 18.9988C56.5868 18.9988 57.5757 19.0687 57.6477 18.9988C57.7169 18.8562 57.4373 18.571 57.3652 17.9977C57.2931 17.4971 57.2931 16.4988 57.2931 15.713L57.2239 13.7136V11.071C57.2239 10.5704 57.1519 10 57.1519 9.42957C57.0106 8.50116 56.8693 7.5 56.163 6.85972C55.943 6.62751 55.706 6.4125 55.4538 6.21653C54.9457 5.90664 54.3989 5.66683 53.8278 5.50349C52.343 5.07567 50.645 5.07567 49.019 5.14552C48.0272 5.28812 47.0355 5.43073 46.1187 5.85856C45.4816 6.14377 44.9165 6.7142 44.4927 7.28754C44.0603 7.92782 43.7777 8.64086 43.8469 9.49942ZM52.196 15.0698C52.0547 16.071 51.4868 17.2846 50.4259 17.5698C49.7195 17.7852 48.8691 17.6397 48.3761 17.142C47.9523 16.6444 47.8831 16.071 47.811 15.4278C47.811 14.4296 48.2348 13.4983 49.0853 13.0006C49.9329 12.4301 50.9938 12.2148 52.0547 12.0023C52.1239 11.9325 52.2681 12.0023 52.2681 12.0722C52.3373 13.0704 52.2652 14.0687 52.196 15.0698ZM75.0465 6.7142L74.9744 14.4267C75.0465 15.4249 75.0465 16.4959 75.3982 17.3545C76.0353 18.7107 77.5201 18.9959 78.7944 19.2113C79.9274 19.284 81.0575 19.1414 82.1184 18.8533L82.1876 18.7835V17.4971C81.6226 17.4971 81.1988 17.5698 80.7029 17.3545C80.3483 17.2119 80.2099 16.8539 80.1378 16.4988C79.9966 15.9284 79.9966 15.2852 79.9245 14.642V6.7142H82.1876L82.2568 5.43073H79.9216V1.14377H75.0407V5.43073H73.2014C73.1322 5.78871 73.2014 6.7142 73.2014 6.7142H75.0465ZM37.9051 31.7811C37.9051 30.9924 37.9743 30.0669 38.401 29.4237C38.5422 29.1385 38.8248 28.9959 39.0381 28.7806C39.534 28.6379 40.2403 28.5681 40.6641 28.9232C41.16 29.2084 41.3013 29.709 41.3704 30.2095C41.5117 31.7084 41.4396 34.7788 41.4396 34.7788V39.706H46.2513V32.2788L46.3205 30.5646C46.3673 29.896 46.6424 29.2644 47.0989 28.7776C47.4402 28.5018 47.864 28.351 48.3011 28.3498C48.8662 28.3498 49.362 28.635 49.5754 29.1356C49.7858 29.8487 49.7858 30.7072 49.7858 31.493V39.706H54.6667V31.8481C54.5975 30.9197 54.5255 29.9913 54.2429 29.2055C53.8883 28.1345 52.8995 27.206 51.8385 26.8481C50.5642 26.2776 48.7249 26.3475 47.4535 26.9907C46.7341 27.3728 46.1064 27.9092 45.6142 28.5623C45.5421 28.5623 45.5421 28.5623 45.47 28.4924C44.905 27.4214 43.772 26.7055 42.6418 26.4901C40.8746 26.2049 38.966 26.7055 37.9743 28.2771C37.9051 28.3469 37.9051 28.4924 37.761 28.4197C37.6918 28.4197 37.6918 28.3469 37.6918 28.3469V26.9237H33.1626V39.709H37.833L37.9051 31.7811ZM65.4231 26.8539C64.4342 26.4261 63.3012 26.1379 62.1682 26.2107C60.1184 26.2806 58.3483 27.1391 57.074 28.7078C57.074 28.7776 57.0048 28.7776 56.9327 28.7776C56.7192 29.0707 56.5302 29.3813 56.3677 29.706C55.8629 30.6533 55.5734 31.7022 55.5201 32.7765C55.5201 35.064 56.2293 37.0634 57.9966 38.4895C59.6226 39.7759 61.7444 40.131 63.8663 39.8457C65.2415 39.7018 66.5451 39.1556 67.6171 38.2741C68.3955 37.5611 69.1047 36.7753 69.2431 35.7771H69.0297C68.9605 35.7043 68.8884 35.7771 68.8164 35.7771L66.6224 35.7043H64.8552L64.786 35.7771C64.6447 36.0623 64.6447 36.3475 64.5755 36.6327C64.4343 37.2031 64.2901 37.7037 63.8663 38.1344C63.5838 38.4197 63.2292 38.7049 62.8054 38.7776C62.4975 38.8241 62.1832 38.8002 61.8857 38.7078C61.4459 38.5528 61.0717 38.2509 60.8248 37.8521C60.0464 36.7084 60.0464 35.2095 60.1184 33.7806C60.1184 33.7107 60.1184 33.7107 60.1876 33.6379H63.2263C64.0768 33.6379 64.8523 33.7078 65.7748 33.6379C66.412 33.6379 67.0462 33.6379 67.7554 33.5681C68.3205 33.6379 68.9576 33.6379 69.4535 33.5681C69.5227 33.5681 69.5227 33.4982 69.5227 33.4255C69.4499 32.0452 69.0621 30.7006 68.3897 29.4965C67.6862 28.3527 66.6253 27.3516 65.4231 26.8539ZM64.7168 32.4243C64.3622 32.4942 64.0105 32.4942 63.725 32.4942H61.3898C61.0352 32.4942 60.6114 32.4942 60.2568 32.4243C60.0435 32.3545 60.1156 32.1362 60.1156 31.9965C60.1847 30.6403 60.2568 29.2811 60.9631 28.1403C61.1729 27.8561 61.4539 27.6335 61.7772 27.4953C62.1005 27.3572 62.4544 27.3086 62.8025 27.3545C63.2955 27.4243 63.7222 27.7823 64.0047 28.2101C64.711 29.3539 64.7831 30.7101 64.7831 32.1391C64.7889 32.206 64.7889 32.3516 64.7168 32.4243Z" fill="black"/>
</g>
</svg>
