<svg width="157" height="30" viewBox="0 0 157 30" fill="none" xmlns="http://www.w3.org/2000/svg">
<g style="mix-blend-mode:screen" opacity="0.56">
<path fill-rule="evenodd" clip-rule="evenodd" d="M102.881 9.29968V14.3436C102.881 15.6048 102.723 17.6533 104.141 18.1263H99.0974C100.359 17.6533 100.201 15.6039 100.201 14.3436V3.78272C100.201 2.6795 100.516 0.630175 99.0974 0H104.141C102.723 0.630175 102.881 2.6795 102.881 3.94069V7.25036H112.496V3.94069C112.496 2.6795 112.653 0.630175 111.234 0H116.278C115.017 0.630175 115.174 2.6795 115.174 3.78272V14.3436C115.174 15.6048 115.017 17.6533 116.278 18.1263H111.234C112.652 17.6533 112.496 15.6039 112.496 14.3436V9.29968H102.881Z" fill="black"/>
<path fill-rule="evenodd" clip-rule="evenodd" d="M130.465 10.876C130.465 15.2897 126.996 18.4414 123.056 18.4414C118.959 18.4414 115.648 15.4477 115.648 11.0331C115.648 6.93529 118.959 3.62477 123.214 3.62477C127.47 3.62477 130.465 7.09241 130.465 10.876ZM117.855 10.876C117.855 13.8706 119.903 16.866 123.056 16.866C126.209 16.866 128.1 14.5007 128.1 11.3482C128.1 8.19564 126.209 5.20105 123.056 5.20105C119.904 5.20188 117.855 7.56546 117.855 10.876ZM150.325 16.3929L152.847 16.708C154.109 16.866 155.527 16.3929 156.631 15.4477L155.684 18.2851H147.331V18.1272C148.276 17.8121 148.276 16.235 148.276 15.2897V7.25038C148.276 6.14715 148.276 4.72884 147.331 4.25579H153.793C154.108 4.25579 154.423 4.25578 154.738 4.09866V6.62103C154.108 5.83289 153.32 5.67493 152.375 5.67493C151.587 5.67493 150.956 5.67493 150.325 5.83206V9.77275H153.635V11.98C153.32 11.3499 152.375 11.3499 151.743 11.3499H150.325V16.3929Z" fill="black"/>
<path fill-rule="evenodd" clip-rule="evenodd" d="M130.307 18.2851H133.302V18.1272C132.987 17.97 132.672 17.339 132.672 16.7088V6.14715H132.987L136.454 15.4477L136.769 16.0778C137.242 17.3382 138.188 18.4414 139.45 18.4414L143.705 5.98918L144.02 5.83205V16.708C144.02 17.3382 143.547 17.97 143.232 18.1263V18.2843H146.858L146.7 18.1263C146.385 17.9692 146.07 17.3382 146.07 16.708V5.67409C146.07 5.04392 146.385 4.57087 146.7 4.25578H146.858H142.759L138.819 15.9199L138.503 15.2897L134.406 4.25578H130.308L130.466 4.41291C130.781 4.57003 131.096 5.04308 131.096 5.67409V16.708C131.096 16.866 130.938 17.1811 130.938 17.3382C130.937 17.97 130.307 18.2851 130.307 18.2851ZM37.6243 16.708L40.1467 17.0231C41.4079 17.0231 42.9842 16.866 44.0874 15.9199L43.1421 18.2851H34.6289V18.1272C35.575 17.8121 35.417 16.235 35.417 15.2897V7.25037C35.417 6.30511 35.5742 4.72883 34.6289 4.41291V4.25578H42.1952V6.3051C41.565 5.51697 40.6189 5.67493 39.6737 5.67493C38.8855 5.67493 38.2545 5.67493 37.6243 5.83205V9.92986H39.9887C40.3038 9.92986 40.6189 9.92987 40.7769 9.77274H40.934V11.8221H40.7769C40.4618 11.191 39.6737 11.1911 39.0426 11.1911H37.6243V16.708Z" fill="black"/>
<path fill-rule="evenodd" clip-rule="evenodd" d="M58.2729 4.25579H54.3322C55.4354 4.72884 55.2783 6.30511 55.2783 7.25037V15.2897C55.2783 15.9199 55.2783 17.0231 54.9632 17.6533C54.4902 17.3382 54.1751 16.8668 53.86 16.5517L49.6042 11.1911C51.4956 10.876 52.9139 9.45765 52.9139 7.72425C52.9139 5.83206 50.8646 4.25662 48.5001 4.25662H43.7713H43.9284C44.2435 4.57171 44.5586 5.04476 44.5586 5.67493V16.7089C44.5586 17.339 44.2435 17.9709 43.9284 18.1272L43.7713 18.2851H47.2389V18.1272C46.9239 17.97 46.6088 17.339 46.6088 16.7089V5.98918C46.7659 5.6741 47.3969 5.51697 47.712 5.51697H48.5001C49.6034 5.51697 50.5495 6.6202 50.5495 7.88138C50.5495 8.66952 50.3923 9.14257 49.9193 9.61478C49.2883 10.245 48.8152 10.5609 47.5549 10.876C46.9239 11.0331 46.9239 11.0331 47.3969 11.5061L47.712 11.9792L51.0217 16.3929C51.6519 17.3382 52.913 18.2851 54.0163 18.2851H58.272V18.1272C57.1688 17.8121 57.3268 16.235 57.3268 15.2897V7.25037C57.3268 6.30511 57.1688 4.72884 58.2729 4.25579ZM76.8723 11.349H72.6165L74.8238 5.98918L76.8723 11.349ZM91.2159 4.25579C91.531 4.57087 91.846 5.04392 91.846 5.6741V14.0285L91.531 14.1856L83.6496 4.25579H81.1272C81.4423 4.57087 81.9153 5.04392 81.9153 5.6741V16.708C81.9153 17.0231 81.9153 17.1811 81.7574 17.4962C81.1272 16.708 80.9709 15.919 80.497 15.1309L76.0833 4.25579H72.7728C73.876 4.57087 73.4038 5.51697 73.0879 6.30511L69.3051 15.7628C69.148 16.0778 68.9901 16.2341 68.675 16.5509C67.8868 17.0223 67.8868 17.0223 66.6256 17.0223C63.316 17.0223 60.4785 14.3428 60.4785 11.0323C60.4785 7.88054 62.3699 5.35818 65.9955 5.35818C67.5717 5.35818 68.5178 5.67326 69.6211 6.30344V4.41207C68.3599 4.25495 67.2567 3.93986 65.8383 3.93986C61.7405 3.93986 58.43 6.93445 58.43 11.1902C58.43 15.1301 61.8976 18.4406 65.8383 18.4406C67.2567 18.4406 68.2028 18.2835 69.6211 18.1255C70.2512 17.9684 70.7243 17.9684 70.7243 17.9684L70.8822 17.8104C70.5672 17.3374 70.7243 16.8651 71.0394 15.9182L72.1426 12.9236H77.5016L78.6048 15.9182C79.235 17.4953 79.393 17.6516 78.2897 18.1255V18.2835H84.1226V18.1255C83.6496 17.9684 83.4908 17.3374 83.4908 16.7072V7.72258L83.9638 7.87971L91.5301 17.4945L93.1072 18.4397H93.4223V5.6741C93.4223 5.04392 93.5794 4.57087 94.0525 4.25579H91.2159ZM5.94236 11.349L4.68034 15.2897C4.05016 16.8668 3.8922 17.6533 5.15339 18.1272V18.2851H0.266602V18.1272C1.84288 17.339 2.31593 15.7636 2.9461 14.1865L7.20188 2.67951C7.67493 1.73425 8.14714 0.630188 6.88679 0.157974H10.9846L16.3444 14.1865C16.9746 15.7636 17.4477 17.3382 19.0239 18.1272V18.2851H13.6649V18.1272C14.9261 17.497 14.6102 17.1819 13.98 15.2897L12.5617 11.349H5.94236ZM9.25121 2.52155L6.72883 9.45682H11.7727L9.25121 2.52155Z" fill="black"/>
<path fill-rule="evenodd" clip-rule="evenodd" d="M17.4485 18.2851H20.4431V18.1272C19.9701 17.97 19.813 17.339 19.813 16.7089V14.8167L19.655 6.14798H20.128L23.5957 15.4485L23.9108 16.0787C24.3838 17.339 25.3291 18.4423 26.4331 18.4423L30.6889 5.99001L31.162 5.83289V16.7089C31.162 17.339 30.6889 17.9709 30.2159 18.1272V18.2851H33.8415V18.1272C33.5264 17.97 33.2113 17.339 33.2113 16.7089V5.67409C33.2113 5.04391 33.5264 4.4129 33.8415 4.25578V4.09865H29.9008L25.803 15.9199L25.487 15.2897L21.5464 4.09865H17.4477V4.25578C17.7628 4.57087 18.0779 5.04391 18.0779 5.67409V17.3382C17.9831 17.7167 17.7608 18.0511 17.4485 18.2851ZM7.04479 25.0624H5.15343V29.6333H3.73512V25.0624H1.68579V24.1155H7.04479V25.0624ZM12.4038 24.1155H13.8229V29.6333H12.4038V24.1155ZM24.6989 25.0624H22.6496V29.6333H21.2313V25.0624H19.1819V24.1155H24.6989V25.0624ZM34.1557 29.6333H29.9008V24.1155H31.3191V28.688H34.1557V29.6333ZM43.6142 29.6333H39.5156V24.1155H43.4562V25.0624H40.7768V26.3228H43.4562V27.2697H40.7768V28.688H43.6142V29.6333ZM58.43 27.5848H56.6966L57.4848 25.3775L58.43 27.5848ZM58.2729 24.1155H56.6966L54.3322 29.6333H55.9085L56.2236 28.5301H58.746L59.219 29.6333H60.7953L58.2729 24.1155ZM71.5133 29.6333H70.4101L67.2575 26.0077V29.6333H65.8392V24.1155H67.0996L70.0941 27.426V24.1155H71.5133V29.6333ZM78.6057 25.0624H79.551C80.813 25.0624 81.286 25.8506 81.286 26.7958C81.286 27.7411 80.9709 28.688 79.551 28.688H78.6057V25.0624ZM77.1874 24.1155V29.6333H79.551C81.7582 29.6333 82.8615 28.5301 82.8615 26.9546C82.8615 25.3775 81.7582 24.1164 79.7098 24.1164H77.1874V24.1155ZM99.0973 29.6333H94.9986V24.1155H99.0973V25.0624H96.4186V26.3228H98.9401V27.2697H96.4186V28.688H99.0973V29.6333ZM108.397 25.5338C107.609 25.2187 107.137 25.0624 106.664 25.0624C106.191 25.0624 105.875 25.2196 105.875 25.5338C105.875 26.322 108.713 26.1657 108.713 28.0562C108.713 29.1594 107.768 29.7913 106.506 29.7913C105.56 29.7913 105.087 29.4745 104.457 29.1594V28.0562C105.245 28.5293 105.875 28.688 106.349 28.688C106.979 28.688 107.295 28.5301 107.295 28.215C107.295 27.2697 104.457 27.5848 104.457 25.5347C104.457 24.5894 105.245 23.9592 106.506 23.9592C107.137 23.9592 107.768 24.1163 108.398 24.4323V25.5338H108.397ZM119.274 29.1594C118.486 29.6325 117.855 29.7913 117.066 29.7913C114.859 29.7913 113.756 28.373 113.756 26.9538C113.756 25.3767 115.018 23.9584 117.224 23.9584C118.011 23.9584 118.643 24.1155 119.273 24.4314V25.6918C118.643 25.3767 118.011 25.2187 117.224 25.2187C116.121 25.2187 115.332 25.8506 115.332 26.7958C115.332 27.8991 116.12 28.5293 117.224 28.5293C118.011 28.5293 118.485 28.3721 119.273 27.8991V29.1594H119.274ZM126.209 25.0624H126.996C127.469 25.0624 127.784 25.3775 127.784 25.6926C127.784 26.1657 127.311 26.3228 126.996 26.3228H126.209V25.0624ZM124.789 24.1155V29.6333H126.209V27.426H126.68C127.469 27.426 127.627 28.5293 128.258 29.6333H129.833C129.047 28.0562 128.73 27.2697 128.258 27.1109C128.888 26.7959 129.203 26.3228 129.203 25.6926C129.203 24.9045 128.573 24.1155 127.311 24.1155H124.789ZM139.449 26.7958C139.449 27.8991 138.818 28.5293 137.714 28.5293C136.613 28.5293 135.981 27.8991 135.981 26.7958C135.981 25.8506 136.613 25.2187 137.714 25.2187C138.818 25.2187 139.449 25.8506 139.449 26.7958ZM140.868 26.7958C140.868 25.5338 139.765 23.9584 137.714 23.9584C135.509 23.9584 134.563 25.5338 134.563 26.7958C134.563 28.373 135.666 29.7913 137.714 29.7913C139.765 29.7913 140.868 28.373 140.868 26.7958ZM148.276 29.7913H147.646L145.281 24.1155H146.699L147.961 27.1109L149.536 24.1155H150.64L152.06 27.1109L153.32 24.1155H154.897L152.375 29.7913H151.743L150.009 26.1657L148.276 29.7913Z" fill="black"/>
</g>
</svg>
